<svg width="383" height="515" viewBox="0 0 383 515" fill="none" xmlns="http://www.w3.org/2000/svg">
<path d="M154.777 494.57C161.214 495.34 167.343 498.913 165.834 507.167H115.969C117.601 499.036 111.441 495.34 104.912 494.57C101.66 494.149 98.4462 493.47 95.3022 492.537V492.137C95.3022 491.552 95.3022 488.656 95.3022 483.913H122.837C125.271 484.468 141.348 492.876 154.777 494.57Z" fill="black"/>
<path d="M115.969 507.167L44.8829 507.475C44.8829 506.52 44.8829 497.835 44.6981 483.913H72.9725C74.8821 484.314 84.7689 489.426 95.3333 492.506C98.4773 493.439 101.691 494.118 104.943 494.539C111.442 495.34 117.602 499.036 115.969 507.167Z" fill="black"/>
<path d="M75.4058 231.076C85.8162 232.062 93.8858 225.717 98.2594 221.528L98.4442 221.713C107.684 222.237 116.401 224.423 120.004 229.998H120.251C127.858 221.343 145.075 218.695 153.022 225.655H153.515C154.223 223.315 155.578 218.602 157.241 212.935H157.642C160.722 236.251 163.063 257.564 163.247 267.482L42.3882 268.036C42.6654 262.4 44.113 244.567 45.4682 224.577L45.6222 224.177C47.1622 224.701 48.7022 225.193 50.2422 225.655C58.47 228.139 66.8853 229.951 75.4058 231.076Z" fill="black"/>
<path d="M48.3633 169.076C44.0947 173.909 40.0752 178.956 36.3205 184.199C33.6409 188.726 38.5997 194.239 46.5153 199.599V199.414C47.5009 185.8 48.1169 174.959 48.3633 169.076ZM58.6813 206.436V206.929C58.6813 206.929 49.9957 211.734 50.3961 224.916L50.1497 225.717C48.6405 225.255 47.0697 224.762 45.5297 224.239C26.6493 217.801 5.27411 205.943 2.19411 184.876C0.992906 176.499 5.61292 169.846 9.27812 162.331C13.8673 152.844 40.4785 118.317 46.9773 113.051C54.3385 106.891 79.5021 103.318 79.5021 103.318C80.0694 100.857 81.4874 98.6752 83.5061 97.1577C86.5861 95.7717 104.45 95.2481 114.645 96.3877C115.238 96.4535 115.812 96.6312 116.339 96.9113C117.5 97.5664 118.495 98.4791 119.248 99.579C120.001 100.679 120.491 101.937 120.682 103.256L173.042 93.2769C162.785 73.4109 155.578 61.6761 142.242 38.5453V38.2989C143.249 35.9142 144.889 33.8503 146.984 32.3303C149.08 30.8103 151.551 29.8921 154.131 29.6749C159.983 36.0505 211.326 92.4453 205.135 101.316C197.743 111.973 146.615 134.919 146.615 134.919C147.94 143.296 149.695 154.507 151.821 168.183V168.398C140.671 168.398 129.152 172.094 125.733 180.102H125.425C119.758 162.639 75.5289 163.316 73.3421 169.476C72.7261 171.139 72.5413 188.449 72.6645 203.11H72.4489C70.662 203.219 68.9452 203.844 67.5072 204.91C66.0691 205.977 64.9718 207.438 64.3485 209.116C62.5313 208.284 60.5909 207.36 58.6813 206.436Z" fill="black"/>
<path d="M44.7284 513.266H115.815V507.414H44.7284V513.266Z" stroke="black" stroke-width="2.6488" stroke-linecap="round" stroke-linejoin="round"/>
<path d="M165.711 507.445H115.938V513.297H165.711V507.445Z" stroke="black" stroke-width="2.6488" stroke-linecap="round" stroke-linejoin="round"/>
<path d="M155.578 494.601V437.96H261.407V471.563" stroke="black" stroke-width="2.6488" stroke-miterlimit="10" stroke-linecap="round"/>
<path d="M261.407 500.607V513.296H155.578" stroke="black" stroke-width="2.6488" stroke-miterlimit="10" stroke-linecap="round"/>
<path d="M355.439 455.917C343.653 445.495 328.895 439.032 313.243 437.437" stroke="black" stroke-width="2.6488" stroke-miterlimit="10" stroke-linecap="round"/>
<path d="M356.425 492.538C358.895 498.966 360.159 505.795 360.152 512.681H381.034C381.057 499.213 377.45 485.988 370.593 474.397" stroke="black" stroke-width="2.6488" stroke-miterlimit="10" stroke-linecap="round"/>
<path d="M313.12 458.473C325.147 459.94 336.304 465.497 344.721 474.212" stroke="black" stroke-width="2.6488" stroke-miterlimit="10" stroke-linecap="round"/>
<path d="M323.038 439.962L318.88 459.119" stroke="black" stroke-width="2.6488" stroke-miterlimit="10" stroke-linecap="round"/>
<path d="M340.471 446.06L331.939 464.448" stroke="black" stroke-width="2.6488" stroke-miterlimit="10" stroke-linecap="round"/>
<path d="M354.269 455.055L341.856 471.502" stroke="black" stroke-width="2.6488" stroke-miterlimit="10" stroke-linecap="round"/>
<path d="M359.505 489.366L375.736 484.962" stroke="black" stroke-width="2.6488" stroke-miterlimit="10" stroke-linecap="round"/>
<path d="M359.443 502.578L379.648 500.915" stroke="black" stroke-width="2.6488" stroke-miterlimit="10" stroke-linecap="round"/>
<path d="M239.785 477.477C250.505 494.109 267.322 505.871 286.622 510.236C305.921 514.602 326.163 511.221 342.997 500.821C359.831 490.422 371.913 473.833 376.647 454.62C381.381 435.408 378.389 415.105 368.313 398.075L350.542 409.04C354.506 415.147 357.211 421.985 358.497 429.152C359.782 436.318 359.624 443.67 358.03 450.775C356.436 457.879 353.438 464.594 349.214 470.524C344.989 476.455 339.623 481.482 333.429 485.31C327.236 489.138 320.34 491.691 313.146 492.817C305.952 493.944 298.606 493.623 291.539 491.872C284.471 490.121 277.824 486.975 271.989 482.621C266.153 478.266 261.247 472.789 257.557 466.512L239.785 477.477Z" stroke="black" stroke-width="2.6488" stroke-miterlimit="10" stroke-linecap="round"/>
<path d="M375.459 414.675L356.394 420.804" stroke="black" stroke-width="2.6488" stroke-miterlimit="10" stroke-linecap="round"/>
<path d="M378.939 434.51L359.166 435.28" stroke="black" stroke-width="2.6488" stroke-miterlimit="10" stroke-linecap="round"/>
<path d="M377.985 452.93L357.842 448.186" stroke="black" stroke-width="2.6488" stroke-miterlimit="10" stroke-linecap="round"/>
<path d="M372.256 470.054L353.437 461.83" stroke="black" stroke-width="2.6488" stroke-miterlimit="10" stroke-linecap="round"/>
<path d="M360.644 487.918L345.737 473.75" stroke="black" stroke-width="2.6488" stroke-miterlimit="10" stroke-linecap="round"/>
<path d="M345.029 501.069L334.711 483.575" stroke="black" stroke-width="2.6488" stroke-miterlimit="10" stroke-linecap="round"/>
<path d="M327.349 508.861L320.82 490.381" stroke="black" stroke-width="2.6488" stroke-miterlimit="10" stroke-linecap="round"/>
<path d="M309.301 512.835L306.929 492.692" stroke="black" stroke-width="2.6488" stroke-miterlimit="10" stroke-linecap="round"/>
<path d="M292.853 512.434L294.763 491.922" stroke="black" stroke-width="2.6488" stroke-miterlimit="10" stroke-linecap="round"/>
<path d="M275.821 507.846L282.998 488.442" stroke="black" stroke-width="2.6488" stroke-miterlimit="10" stroke-linecap="round"/>
<path d="M272.711 483.143L258.881 498.297" stroke="black" stroke-width="2.6488" stroke-miterlimit="10" stroke-linecap="round"/>
<path d="M263.47 474.705L247.146 486.778" stroke="black" stroke-width="2.6488" stroke-miterlimit="10" stroke-linecap="round"/>
<path d="M213.451 355.323C186.314 360.833 162.176 376.193 145.691 398.443" stroke="black" stroke-width="2.6488" stroke-miterlimit="10" stroke-linecap="round"/>
<path d="M198.575 392.93C203.409 390.379 208.485 388.315 213.728 386.77" stroke="black" stroke-width="2.6488" stroke-miterlimit="10" stroke-linecap="round"/>
<path d="M159.305 437.991C164.593 422.941 174.243 409.807 187.025 400.261" stroke="black" stroke-width="2.6488" stroke-miterlimit="10" stroke-linecap="round"/>
<path d="M147.816 493.215L155.516 490.72" stroke="black" stroke-width="2.6488" stroke-miterlimit="10" stroke-linecap="round"/>
<path d="M127.272 469.591L154.038 468.452" stroke="black" stroke-width="2.6488" stroke-miterlimit="10" stroke-linecap="round"/>
<path d="M134.511 444.275L155.455 449.326" stroke="black" stroke-width="2.6488" stroke-miterlimit="10" stroke-linecap="round"/>
<path d="M140.886 419.573L162.508 429.244" stroke="black" stroke-width="2.6488" stroke-miterlimit="10" stroke-linecap="round"/>
<path d="M151.974 390.743L173.904 411.626" stroke="black" stroke-width="2.6488" stroke-miterlimit="10" stroke-linecap="round"/>
<path d="M174.951 371.216L188.226 393.762" stroke="black" stroke-width="2.6488" stroke-miterlimit="10" stroke-linecap="round"/>
<path d="M201.101 359.728L210.71 387.017" stroke="black" stroke-width="2.6488" stroke-miterlimit="10" stroke-linecap="round"/>
<path d="M180.311 463.493L171.071 472.733" stroke="black" stroke-width="2.6488" stroke-miterlimit="10" stroke-linecap="round"/>
<path d="M170.947 463.493L180.187 472.733" stroke="black" stroke-width="2.6488" stroke-miterlimit="10" stroke-linecap="round"/>
<path d="M259.282 246.476C255.82 246.476 252.437 247.503 249.559 249.427C246.682 251.351 244.439 254.085 243.116 257.283C241.793 260.482 241.448 264.001 242.126 267.395C242.803 270.79 244.473 273.907 246.922 276.352C249.372 278.798 252.492 280.461 255.888 281.133C259.283 281.804 262.802 281.454 265.998 280.125C269.194 278.796 271.924 276.549 273.843 273.668C275.761 270.787 276.782 267.401 276.776 263.94C276.776 261.644 276.323 259.371 275.444 257.25C274.564 255.129 273.275 253.203 271.65 251.581C270.025 249.958 268.097 248.673 265.974 247.797C263.852 246.921 261.578 246.472 259.282 246.476ZM268.922 273.55C268.799 273.678 268.65 273.781 268.486 273.85C268.322 273.92 268.146 273.956 267.967 273.956C267.789 273.956 267.613 273.92 267.448 273.85C267.284 273.781 267.136 273.678 267.013 273.55C265.226 271.732 262.269 268.776 259.282 265.819L251.551 273.55C251.435 273.679 251.292 273.782 251.133 273.851C250.973 273.92 250.801 273.954 250.627 273.95C250.366 273.943 250.113 273.861 249.897 273.714C249.682 273.566 249.514 273.36 249.413 273.119C249.312 272.878 249.283 272.614 249.329 272.357C249.375 272.1 249.494 271.862 249.672 271.671C250.442 270.932 253.83 267.513 257.403 263.94L249.703 256.24C249.576 256.121 249.473 255.977 249.401 255.818C249.329 255.66 249.289 255.488 249.283 255.313C249.277 255.139 249.306 254.965 249.367 254.802C249.429 254.638 249.522 254.489 249.641 254.361C249.761 254.234 249.904 254.131 250.063 254.059C250.222 253.987 250.394 253.947 250.568 253.941C250.742 253.936 250.916 253.964 251.08 254.026C251.243 254.087 251.393 254.18 251.52 254.3C251.797 254.546 255.401 258.18 259.282 262.061L267.043 254.3C267.296 254.057 267.632 253.921 267.983 253.921C268.333 253.921 268.67 254.057 268.922 254.3C269.046 254.423 269.144 254.569 269.211 254.73C269.278 254.892 269.313 255.064 269.313 255.239C269.313 255.414 269.278 255.587 269.211 255.748C269.144 255.909 269.046 256.055 268.922 256.178L261.191 263.878L268.953 271.609C269.186 271.879 269.306 272.227 269.289 272.583C269.271 272.938 269.118 273.273 268.861 273.519L268.922 273.55Z" fill="black"/>
<path d="M227.003 463.493L217.763 472.733" stroke="black" stroke-width="2.6488" stroke-miterlimit="10" stroke-linecap="round"/>
<path d="M217.609 463.493L226.849 472.733" stroke="black" stroke-width="2.6488" stroke-miterlimit="10" stroke-linecap="round"/>
<path d="M214.006 437.929V356.155H313.12V491.09" stroke="black" stroke-width="2.6488" stroke-miterlimit="10" stroke-linecap="round"/>
<path d="M364.279 400.261C368.005 398.783 374.381 387.695 369.114 378.177C363.416 367.829 353.961 368.352 350.08 370.293C353.16 377.438 360.891 393.978 364.032 400.323" stroke="black" stroke-width="2.6488" stroke-miterlimit="10" stroke-linecap="round"/>
<path d="M339.362 376.514C335.635 378.023 329.259 389.08 334.526 398.598C340.224 408.946 349.68 408.423 353.56 406.513C350.48 399.368 342.75 382.797 339.608 376.483" stroke="black" stroke-width="2.6488" stroke-miterlimit="10" stroke-linecap="round"/>
<path d="M168.144 487.363C170.978 487.363 170.978 506.367 173.811 506.367C176.645 506.367 176.645 487.363 179.509 487.363C182.374 487.363 182.343 506.367 185.176 506.367C188.01 506.367 188.01 487.363 190.844 487.363C193.677 487.363 193.677 506.367 196.511 506.367C199.344 506.367 199.375 487.363 202.209 487.363C205.042 487.363 205.042 506.367 207.907 506.367C210.771 506.367 210.74 487.363 213.574 487.363C216.408 487.363 216.438 506.367 219.272 506.367C222.106 506.367 222.136 487.363 224.97 487.363C227.804 487.363 227.834 506.367 230.668 506.367" stroke="black" stroke-width="2.6488" stroke-miterlimit="10" stroke-linecap="round"/>
<path d="M232.27 437.744L249.271 405.188" stroke="black" stroke-width="2.6488" stroke-miterlimit="10" stroke-linecap="round"/>
<path d="M251.151 405.035C254.961 405.035 258.05 401.946 258.05 398.136C258.05 394.325 254.961 391.236 251.151 391.236C247.34 391.236 244.251 394.325 244.251 398.136C244.251 401.946 247.34 405.035 251.151 405.035Z" stroke="black" stroke-width="2.6488" stroke-miterlimit="10" stroke-linecap="round"/>
<path d="M174.859 437.744L191.861 405.188" stroke="black" stroke-width="2.6488" stroke-miterlimit="10" stroke-linecap="round"/>
<path d="M193.739 405.035C197.549 405.035 200.638 401.946 200.638 398.136C200.638 394.325 197.549 391.236 193.739 391.236C189.929 391.236 186.84 394.325 186.84 398.136C186.84 401.946 189.929 405.035 193.739 405.035Z" stroke="black" stroke-width="2.6488" stroke-miterlimit="10" stroke-linecap="round"/>
<path d="M271.509 480.495V392.407H312.781" stroke="black" stroke-width="2.6488" stroke-miterlimit="10" stroke-linecap="round"/>
<path d="M251.643 356.156C251.643 356.156 211.603 306.352 210.802 305.644C209.54 304.289 193.801 313.683 198.298 332.594C202.794 351.505 214.314 356.002 214.314 356.002" stroke="black" stroke-width="2.6488" stroke-miterlimit="10" stroke-linecap="round"/>
<path d="M245.175 347.562C246.31 346.795 247.694 346.486 249.048 346.697C250.402 346.909 251.625 347.625 252.472 348.703C253.319 349.78 253.726 351.138 253.613 352.503C253.499 353.869 252.872 355.141 251.858 356.063" stroke="black" stroke-width="2.6488" stroke-miterlimit="10" stroke-linecap="round"/>
<path d="M238.522 339.092C239.658 338.325 241.041 338.016 242.395 338.227C243.749 338.439 244.973 339.155 245.82 340.233C246.666 341.31 247.074 342.668 246.96 344.033C246.846 345.399 246.22 346.671 245.206 347.593" stroke="black" stroke-width="2.6488" stroke-miterlimit="10" stroke-linecap="round"/>
<path d="M231.87 330.654C233.005 329.886 234.389 329.577 235.743 329.789C237.096 330 238.32 330.717 239.167 331.794C240.014 332.871 240.421 334.229 240.308 335.595C240.194 336.96 239.567 338.232 238.553 339.154" stroke="black" stroke-width="2.6488" stroke-miterlimit="10" stroke-linecap="round"/>
<path d="M225.217 322.184C226.352 321.416 227.736 321.107 229.089 321.319C230.443 321.53 231.667 322.247 232.514 323.324C233.361 324.401 233.768 325.759 233.654 327.125C233.541 328.491 232.914 329.762 231.9 330.684" stroke="black" stroke-width="2.6488" stroke-miterlimit="10" stroke-linecap="round"/>
<path d="M218.533 313.744C219.66 312.833 221.103 312.407 222.545 312.56C223.986 312.713 225.307 313.433 226.218 314.56C227.129 315.687 227.554 317.13 227.401 318.571C227.248 320.012 226.529 321.334 225.402 322.244" stroke="black" stroke-width="2.6488" stroke-miterlimit="10" stroke-linecap="round"/>
<path d="M211.881 305.274C213.013 304.452 214.42 304.1 215.806 304.291C217.193 304.482 218.452 305.203 219.319 306.301C220.187 307.399 220.596 308.791 220.461 310.184C220.326 311.577 219.657 312.864 218.595 313.775" stroke="black" stroke-width="2.6488" stroke-miterlimit="10" stroke-linecap="round"/>
<path d="M305.481 349.317C303.51 344.482 291.098 323.445 300.831 320.273C307.175 318.179 323.715 340.016 318.448 343.25C314.352 345.775 304.342 320.858 307.453 315.93C312.935 307.275 329.013 327.942 329.69 333.147C330.583 338.876 326.61 336.227 324.639 332.932C320.327 326.002 316.107 313.836 322.483 306.998" stroke="black" stroke-width="2.6488" stroke-miterlimit="10" stroke-linecap="round"/>
<path d="M190.875 350.642C186.932 351.042 168.945 355.477 168.729 347.716C168.729 342.665 188.041 335.396 189.273 339.893C190.228 343.435 169.931 345.283 167.035 341.956C161.923 336.104 180.403 328.989 184.376 329.636C188.349 330.283 185.823 332.501 183.113 333.24C177.138 334.872 167.374 335.303 163.771 329.205" stroke="black" stroke-width="2.6488" stroke-miterlimit="10" stroke-linecap="round"/>
<path d="M270.185 294.278H232.763C230.954 294.379 229.179 293.758 227.827 292.551C226.476 291.344 225.659 289.65 225.556 287.841V240.625C225.659 238.813 226.475 237.116 227.825 235.904C229.176 234.692 230.951 234.064 232.763 234.157H285.708C287.515 234.064 289.286 234.688 290.635 235.893C291.985 237.099 292.804 238.788 292.915 240.594V287.81C292.812 289.619 291.995 291.313 290.644 292.52C289.292 293.727 287.517 294.348 285.708 294.247H278.532" stroke="black" stroke-width="2.6488" stroke-linecap="round" stroke-linejoin="round"/>
<path d="M278.747 290.489C278.747 290.489 276.776 304.719 273.295 307.429C269.815 310.14 270.554 287.748 270.554 287.748" stroke="black" stroke-width="2.6488" stroke-linecap="round" stroke-linejoin="round"/>
<path d="M117.232 39.377C117.401 39.3769 117.568 39.4106 117.723 39.476C117.878 39.5413 118.019 39.6371 118.136 39.7577C118.254 39.8782 118.346 40.0211 118.408 40.1779C118.47 40.3346 118.499 40.5022 118.495 40.6706C118.495 40.839 118.461 41.0058 118.396 41.161C118.331 41.3163 118.235 41.4569 118.114 41.5746C117.994 41.6922 117.851 41.7846 117.694 41.8462C117.537 41.9079 117.37 41.9375 117.201 41.9334C117.017 41.9621 116.828 41.9505 116.649 41.8995C116.469 41.8485 116.303 41.7592 116.161 41.6377C116.019 41.5163 115.905 41.3656 115.827 41.196C115.749 41.0264 115.709 40.8419 115.709 40.6552C115.709 40.4685 115.749 40.284 115.827 40.1144C115.905 39.9448 116.019 39.7941 116.161 39.6726C116.303 39.5512 116.469 39.4619 116.649 39.4108C116.828 39.3598 117.017 39.3482 117.201 39.377H117.232Z" fill="black"/>
<path d="M99.953 38.8235C100.123 38.8275 100.29 38.8649 100.446 38.9337C100.601 39.0024 100.742 39.1011 100.859 39.2241C100.976 39.347 101.068 39.4919 101.129 39.6505C101.191 39.809 101.22 39.978 101.216 40.1479C101.216 40.3164 101.182 40.4831 101.117 40.6384C101.051 40.7936 100.956 40.9342 100.835 41.0519C100.715 41.1696 100.572 41.2619 100.415 41.3236C100.258 41.3852 100.091 41.4148 99.9222 41.4107C99.7524 41.4067 99.5849 41.3693 99.4295 41.3005C99.2741 41.2318 99.1337 41.1331 99.0164 41.0101C98.8992 40.8871 98.8073 40.7423 98.746 40.5837C98.6848 40.4252 98.6553 40.2562 98.6594 40.0863C98.6594 39.9178 98.6931 39.7511 98.7584 39.5958C98.8238 39.4406 98.9196 39.3 99.0401 39.1823C99.1607 39.0646 99.3035 38.9723 99.4603 38.9106C99.6171 38.849 99.7846 38.8194 99.953 38.8235Z" fill="black"/>
<path d="M94.5631 409.285C94.8403 442.118 95.2407 470.454 95.3947 483.913C95.3947 488.656 95.3947 491.552 95.3947 492.137" stroke="black" stroke-width="2.6488" stroke-miterlimit="10"/>
<path d="M63.9167 278.786C64.3171 292.092 55.0771 300.069 43.6811 303.242C40.5529 304.098 37.3413 304.615 34.1023 304.782" stroke="black" stroke-width="2.6488" stroke-miterlimit="10" stroke-linecap="round"/>
<path d="M111.749 294.34C110.041 333.147 104.239 371.666 94.4398 409.254C87.941 435.434 80.3642 460.475 73.0954 483.575V483.883C75.005 484.283 84.8918 489.396 95.4562 492.476C98.6002 493.408 101.814 494.088 105.066 494.509C111.534 495.279 117.632 498.852 116.123 507.106L45.0366 507.414C45.0366 506.459 45.0366 497.774 44.8518 483.852C44.4514 445.506 43.5582 367.582 43.8354 303.179C43.8354 291.106 43.8354 279.525 44.1126 268.745" stroke="black" stroke-width="2.6488" stroke-linecap="round" stroke-linejoin="round"/>
<path d="M161.184 269.33C159.243 354.307 140.64 427.334 122.838 483.883C125.302 484.406 141.318 492.938 154.808 494.509C161.245 495.279 167.374 498.852 165.865 507.106H115.384" stroke="black" stroke-width="2.6488" stroke-linecap="round" stroke-linejoin="round"/>
<path d="M124.008 483.913H122.837H95.8564" stroke="black" stroke-width="2.6488" stroke-miterlimit="10"/>
<path d="M73.0028 483.913H72.972H44.8516" stroke="black" stroke-width="2.6488" stroke-miterlimit="10"/>
<path d="M129.521 35.2198C132.232 45.8766 117.201 70.9479 112.797 72.6419C112.261 72.8565 111.703 73.0114 111.134 73.1038C104.789 74.2434 96.781 68.607 94.0706 63.0322" stroke="black" stroke-width="2.6488" stroke-miterlimit="10" stroke-linecap="round"/>
<path d="M85.754 29.4907C85.9696 27.9815 86.1852 26.4107 86.4624 24.5935C86.8463 21.8839 87.3914 19.1995 88.0948 16.5547C88.9504 12.9528 90.6145 9.59287 92.9612 6.72952C101.924 -3.28048 111.718 4.17312 118.956 14.4911C120.969 17.3984 122.79 20.4334 124.408 23.5771" stroke="black" stroke-width="2.6488" stroke-miterlimit="10" stroke-linecap="round"/>
<path d="M83.5367 96.635C83.5367 78.4014 82.5819 61.1842 84.0911 42.9814" stroke="black" stroke-width="2.6488" stroke-miterlimit="10"/>
<path d="M111.042 72.3647V73.1039C111.693 81.1536 113.498 89.0679 116.401 96.6043" stroke="black" stroke-width="2.6488" stroke-miterlimit="10"/>
<path d="M88.2796 32.7243C87.5365 31.5852 86.6458 30.5495 85.6308 29.6443C78.4236 23.4843 73.6495 37.1595 76.6063 41.0711C77.5444 42.0454 78.7481 42.7224 80.0678 43.0181C81.3875 43.3138 82.7651 43.2151 84.0291 42.7343C84.6021 42.5569 85.1586 42.3302 85.6923 42.0567" stroke="black" stroke-width="2.6488" stroke-miterlimit="10" stroke-linecap="round"/>
<path d="M87.1092 24.3462L86.4624 24.5926C82.4584 25.8862 62.0688 31.5226 61.8224 24.5926C61.8224 20.3422 74.5428 17.9706 88.0024 16.6462C102.047 15.2294 116.8 14.9522 118.433 14.7982" stroke="black" stroke-width="2.6488" stroke-miterlimit="10"/>
<path d="M84.2455 35.1882C82.932 36.396 81.2245 37.0856 79.4407 37.1286" stroke="black" stroke-width="2.6488" stroke-miterlimit="10" stroke-linecap="round"/>
<path d="M45.3757 224.64C44.1129 244.629 42.6653 262.462 42.2957 268.099L163.278 268.037C163.093 257.966 160.722 236.652 157.642 213.336" stroke="black" stroke-width="2.6488" stroke-linecap="round" stroke-linejoin="round"/>
<path d="M48.3629 169.077C48.1165 174.959 47.5005 185.801 46.6689 199.322" stroke="black" stroke-width="2.6488" stroke-linecap="round" stroke-linejoin="round"/>
<path d="M65.5492 209.517L64.4712 209.024C62.5308 208.161 60.5904 207.237 58.6808 206.313C54.492 204.246 50.4295 201.932 46.5148 199.383C38.5992 194.117 33.6404 188.603 36.32 183.983C40.0746 178.741 44.0941 173.694 48.3628 168.861C55.9285 159.815 64.1652 151.351 73.0028 143.543" stroke="black" stroke-width="2.6488" stroke-linejoin="round"/>
<path d="M141.41 17.4164C141.194 17.0468 140.671 16.1844 139.962 15.1372C138.145 12.5192 135.281 8.60761 134.726 7.83761C132.786 5.12721 130.537 5.43521 127.673 6.69801C125.794 7.52961 119.388 9.40841 120.035 12.4268C120.928 16.4616 128.258 12.4268 129.675 12.6424C131.092 12.858 132.478 16.1844 133.556 17.9708" stroke="black" stroke-width="2.6488" stroke-miterlimit="10" stroke-linecap="round"/>
<path d="M136.328 18.865C135.407 18.5784 134.471 18.3419 133.525 18.1566C128.689 17.2942 126.595 18.865 125.671 20.8054C125.178 21.791 124.747 22.715 124.347 23.6082C123.274 25.5068 122.593 27.6015 122.345 29.7682C122.283 30.2808 122.381 30.7999 122.624 31.2555C122.867 31.7111 123.243 32.0813 123.703 32.3162C124.163 32.5511 124.684 32.6394 125.195 32.5694C125.707 32.4993 126.185 32.2741 126.564 31.9242" stroke="black" stroke-width="2.6488" stroke-miterlimit="10" stroke-linecap="round"/>
<path d="M151.482 168.183C149.48 154.508 147.601 143.296 146.276 134.919C146.276 134.919 197.497 111.973 204.796 101.316C210.956 92.4457 159.644 36.0509 153.792 29.6753L153.268 29.0901C153.268 29.0901 144.244 12.6737 145.784 7.74569C147.662 1.58569 142.426 1.58569 140.578 8.14609C139.776 10.3736 139.543 12.7664 139.901 15.1069" stroke="black" stroke-width="2.6488" stroke-miterlimit="10" stroke-linecap="round"/>
<path d="M58.65 206.93C58.65 206.93 49.9952 211.735 50.3956 224.917" stroke="black" stroke-width="2.6488" stroke-miterlimit="10" stroke-linecap="round"/>
<path d="M75.4365 231.077C66.8832 229.937 58.4367 228.103 50.1805 225.594C48.6713 225.132 47.1005 224.639 45.5605 224.116C26.6493 217.802 5.27411 205.944 2.19411 184.877C0.992906 176.499 5.61292 169.846 9.27812 162.331C13.8673 152.845 40.4785 118.318 46.9773 113.051C54.3385 106.891 79.5021 103.318 79.5021 103.318C80.0694 100.857 81.4874 98.6758 83.5061 97.1583V97.1583C86.5861 95.7723 104.45 95.2487 114.645 96.3883C115.238 96.4541 115.812 96.6318 116.339 96.9119C117.5 97.567 118.495 98.4796 119.248 99.5796C120.001 100.68 120.491 101.937 120.682 103.257L173.042 93.2775C162.785 73.4115 155.578 61.6767 142.242 38.5459V38.2995C141.533 36.9443 137.899 30.0759 137.745 30.0143C137.591 29.9527 133.31 30.0143 133.31 30.0143L132.324 32.7555C132.126 33.4102 131.716 33.9805 131.159 34.3765C130.601 34.7724 129.927 34.9715 129.244 34.9423C127.981 34.9423 126.842 34.2647 126.842 33.3099C126.801 32.9311 126.801 32.5491 126.842 32.1703C127.135 29.572 128.209 27.1236 129.922 25.1479C131.554 23.8851 134.511 24.3471 136.944 24.5627" stroke="black" stroke-width="2.6488" stroke-linecap="round" stroke-linejoin="round"/>
<path d="M153.914 29.6749C151.335 29.8921 148.864 30.8103 146.768 32.3303C144.673 33.8503 143.033 35.9142 142.026 38.2989" stroke="black" stroke-width="2.6488" stroke-miterlimit="10" stroke-linecap="round"/>
<path d="M104.172 62.5692C105.15 61.8444 106.326 61.4353 107.542 61.3968C108.758 61.3583 109.958 61.6921 110.979 62.3536" stroke="black" stroke-width="2.6488" stroke-linecap="round" stroke-linejoin="round"/>
<path d="M102.91 32.0783C102.392 31.5918 101.778 31.2194 101.107 30.985C100.436 30.7506 99.7238 30.6595 99.0156 30.7175C98.3074 30.7756 97.6193 30.9815 96.9956 31.322C96.3719 31.6625 95.8266 32.13 95.3948 32.6943" stroke="black" stroke-width="2.6488" stroke-miterlimit="10" stroke-linecap="round"/>
<path d="M119.758 31.9849C119.245 31.4946 118.634 31.1186 117.965 30.8817C117.296 30.6448 116.584 30.5525 115.877 30.6107C115.17 30.6689 114.483 30.8763 113.862 31.2194C113.241 31.5625 112.699 32.0333 112.273 32.6009" stroke="black" stroke-width="2.6488" stroke-miterlimit="10" stroke-linecap="round"/>
<path d="M112.088 33.0016C110.517 36.7592 112.088 42.6728 112.735 46.5844C113.074 49.264 113.567 54.4076 109.008 52.7444" stroke="black" stroke-width="2.6488" stroke-miterlimit="10" stroke-linecap="round"/>
<path d="M125.271 180.472C125.309 180.343 125.36 180.219 125.425 180.102C128.843 172.094 140.363 168.46 151.512 168.398C157.732 168.195 163.91 169.483 169.53 172.156" stroke="black" stroke-width="2.6488" stroke-linecap="round" stroke-linejoin="round"/>
<path d="M73.3416 169.477C75.5284 163.317 119.757 162.732 125.116 180.165L120.096 228.952" stroke="black" stroke-width="2.6488" stroke-linecap="round" stroke-linejoin="round"/>
<path d="M169.961 172.371C168.544 174.959 161.738 197.812 157.179 213.335C155.516 219.003 154.099 223.715 153.452 226.056C153.471 226.127 153.471 226.201 153.452 226.271" stroke="black" stroke-width="2.6488" stroke-linecap="round" stroke-linejoin="round"/>
<path d="M152.991 225.933C145.045 218.972 127.827 221.621 120.22 230.276" stroke="black" stroke-width="2.6488" stroke-linecap="round" stroke-linejoin="round"/>
<path d="M72.9723 214.568C72.9723 212.473 72.9723 210.133 72.9723 207.669C72.9723 206.221 72.9723 204.589 72.9723 203.172C72.9723 188.511 72.9723 171.201 73.6499 169.538" stroke="black" stroke-width="2.6488" stroke-linecap="round" stroke-linejoin="round"/>
<path d="M119.973 230.122C116.4 224.547 107.653 222.36 98.4131 221.837" stroke="black" stroke-width="2.6488" stroke-linecap="round" stroke-linejoin="round"/>
<path d="M92.4068 210.563C94.9324 207.853 92.1296 203.572 88.7416 206.344C83.906 210.317 77.5612 214.567 72.972 214.537H71.8324H71.1548" stroke="black" stroke-width="2.6488" stroke-linejoin="round"/>
<path d="M83.7216 224.732C88.9621 221.639 93.8119 217.926 98.1668 213.675L98.5056 213.275C99.6452 211.766 99.8608 207.115 96.1648 207.854C94.7309 208.504 93.4425 209.437 92.3764 210.595C88.5149 214.19 84.0804 217.115 79.2556 219.25" stroke="black" stroke-width="2.6488" stroke-linecap="round" stroke-linejoin="round"/>
<path d="M75.1898 231.076H75.4054C85.8158 232.062 93.8854 225.717 98.259 221.528C99.7682 220.05 100.785 218.818 101.339 218.448C103.218 216.169 101.739 212.627 98.259 213.736" stroke="black" stroke-width="2.6488" stroke-linejoin="round"/>
<path d="M71.9559 215.092C71.9385 214.866 71.9385 214.64 71.9559 214.414C71.6459 213.276 71.5762 212.086 71.7512 210.919C71.9261 209.753 72.342 208.635 72.9723 207.638V207.638" stroke="black" stroke-width="2.6488" stroke-linejoin="round"/>
<path d="M64.0714 210.071C64.0714 209.856 64.287 209.517 64.4718 209.147C65.0951 207.469 66.1924 206.008 67.6305 204.942C69.0685 203.876 70.7853 203.25 72.5722 203.141" stroke="black" stroke-width="2.6488" stroke-linejoin="round"/>
<path d="M65.5492 209.517L64.4712 209.024C62.5308 208.161 60.5904 207.237 58.6808 206.313C54.492 204.246 50.4295 201.932 46.5148 199.383C38.5992 194.117 33.6404 188.603 36.32 183.983C40.0746 178.741 44.0941 173.694 48.3628 168.861C55.9285 159.815 64.1652 151.351 73.0028 143.543" stroke="white" stroke-width="2.6488" stroke-linecap="round" stroke-linejoin="round"/>
<path d="M91.5757 488.718C95.0869 490.443 101.308 494.262 104.912 494.57C111.38 495.125 115.723 498.297 115.846 507.167" stroke="white" stroke-width="2.6488" stroke-linecap="square" stroke-linejoin="round"/>
</svg>
